<svg xmlns="http://www.w3.org/2000/svg" width="28" height="28" viewBox="0 0 28 28" fill="none">
  <g clip-path="url(#clip0_1_1181)">
    <path d="M27.5843 10.1207C27.2146 9.6568 26.6599 9.39069 26.0624 9.39069H20.67L17.7459 2.69514C17.5646 2.28001 17.081 2.0903 16.6659 2.27169C16.2507 2.45298 16.0611 2.93658 16.2424 3.35177L18.8797 9.39075H9.12029L11.7576 3.35177C11.9389 2.93658 11.7493 2.45304 11.3342 2.27169C10.919 2.0903 10.4354 2.2799 10.2541 2.69514L7.33004 9.39075H1.93764C1.34012 9.39075 0.785425 9.6568 0.415683 10.1207C0.0527222 10.5762 -0.0812075 11.1616 0.0482378 11.7272L2.92792 24.3053C3.129 25.1836 3.90595 25.797 4.81732 25.797H23.1827C24.0941 25.797 24.871 25.1836 25.0721 24.3053L27.9518 11.7272C28.0812 11.1616 27.9473 10.5761 27.5843 10.1207ZM23.1827 24.1563H4.81732C4.67803 24.1563 4.55602 24.065 4.5272 23.9391L1.64752 11.3611C1.62493 11.2624 1.66283 11.1881 1.69871 11.1432C1.73196 11.1014 1.80726 11.0314 1.93764 11.0314H6.61358L6.39871 11.5234C6.21743 11.9386 6.40697 12.4221 6.82216 12.6035C6.92902 12.6502 7.04036 12.6723 7.15001 12.6723C7.46621 12.6723 7.76754 12.4884 7.90218 12.1801L8.40383 11.0315H19.5963L20.0979 12.1801C20.2326 12.4884 20.5339 12.6723 20.8501 12.6723C20.9597 12.6723 21.0711 12.6502 21.178 12.6035C21.5931 12.4222 21.7827 11.9386 21.6014 11.5234L21.3865 11.0314H26.0625C26.1929 11.0314 26.2682 11.1014 26.3014 11.1432C26.3372 11.1882 26.3752 11.2624 26.3526 11.361L23.4729 23.9392C23.444 24.065 23.322 24.1563 23.1827 24.1563Z" fill="black"/>
    <path d="M9.07812 14.5862C8.62509 14.5862 8.25781 14.9535 8.25781 15.4065V21.4221C8.25781 21.8752 8.62509 22.2424 9.07812 22.2424C9.53116 22.2424 9.89844 21.8752 9.89844 21.4221V15.4065C9.89844 14.9535 9.53121 14.5862 9.07812 14.5862Z" fill="black"/>
    <path d="M14 14.5862C13.547 14.5862 13.1797 14.9535 13.1797 15.4065V21.4221C13.1797 21.8752 13.547 22.2424 14 22.2424C14.453 22.2424 14.8203 21.8752 14.8203 21.4221V15.4065C14.8203 14.9535 14.453 14.5862 14 14.5862Z" fill="black"/>
    <path d="M18.9219 14.5862C18.4688 14.5862 18.1016 14.9535 18.1016 15.4065V21.4221C18.1016 21.8752 18.4688 22.2424 18.9219 22.2424C19.3749 22.2424 19.7422 21.8752 19.7422 21.4221V15.4065C19.7421 14.9535 19.3749 14.5862 18.9219 14.5862Z" fill="black"/>
  </g>
  <defs>
    <clipPath id="clip0_1_1181">
      <rect width="28" height="28" fill="white"/>
    </clipPath>
  </defs>
</svg>