<svg xmlns="http://www.w3.org/2000/svg" width="25" height="24" viewBox="0 0 25 24" fill="none">
  <g clip-path="url(#clip0_1_1189)">
    <path d="M21.3389 15.5147C19.9774 14.2077 18.3569 13.2402 16.5888 12.6545C18.4825 11.4024 19.7266 9.30694 19.7266 6.9375C19.7266 3.11217 16.4847 0 12.5 0C8.51528 0 5.27344 3.11217 5.27344 6.9375C5.27344 9.30694 6.51753 11.4024 8.41123 12.6545C6.64316 13.2402 5.02266 14.2077 3.66118 15.5147C1.30024 17.7812 0 20.7947 0 24H1.95312C1.95312 18.417 6.68442 13.875 12.5 13.875C18.3156 13.875 23.0469 18.417 23.0469 24H25C25 20.7947 23.6998 17.7812 21.3389 15.5147ZM12.5 12C9.59224 12 7.22656 9.729 7.22656 6.9375C7.22656 4.146 9.59224 1.875 12.5 1.875C15.4078 1.875 17.7734 4.146 17.7734 6.9375C17.7734 9.729 15.4078 12 12.5 12Z" fill="black"/>
  </g>
  <defs>
    <clipPath id="clip0_1_1189">
      <rect width="25" height="24" fill="white"/>
    </clipPath>
  </defs>
</svg>