<svg xmlns="http://www.w3.org/2000/svg" width="42" height="42" viewBox="0 0 42 42" fill="none">
  <path d="M39.375 19.6874H5.79471L11.4253 14.0503C11.6404 13.7992 11.7527 13.4762 11.74 13.1459C11.7272 12.8156 11.5903 12.5022 11.3565 12.2685C11.1228 12.0347 10.8094 11.8978 10.4791 11.885C10.1488 11.8723 9.8258 11.9846 9.57471 12.1996L1.69971 20.0746C1.54538 20.2262 1.42967 20.4126 1.36229 20.6181C1.29492 20.8237 1.27785 21.0424 1.31252 21.2559C1.37183 21.503 1.49649 21.7297 1.67346 21.9121L9.54846 29.7871C9.66612 29.9245 9.81092 30.0361 9.97375 30.1149C10.1366 30.1937 10.3139 30.2379 10.4947 30.2449C10.6755 30.2519 10.8557 30.2215 11.0241 30.1555C11.1926 30.0895 11.3455 29.9894 11.4734 29.8615C11.6013 29.7336 11.7014 29.5806 11.7674 29.4122C11.8334 29.2438 11.8639 29.0635 11.8569 28.8828C11.8499 28.702 11.8056 28.5246 11.7269 28.3618C11.6481 28.199 11.5365 28.0542 11.3991 27.9365L5.79471 22.3124H39.375C39.7231 22.3124 40.057 22.1742 40.3031 21.928C40.5492 21.6819 40.6875 21.348 40.6875 20.9999C40.6875 20.6518 40.5492 20.318 40.3031 20.0719C40.057 19.8257 39.7231 19.6874 39.375 19.6874Z" fill="black"/>
</svg>