<svg xmlns="http://www.w3.org/2000/svg" width="42" height="42" viewBox="0 0 42 42" fill="none">
  <path d="M2.625 19.6874H36.2053L30.5747 14.0503C30.3597 13.7992 30.2473 13.4762 30.2601 13.1459C30.2728 12.8156 30.4098 12.5022 30.6435 12.2685C30.8773 12.0347 31.1906 11.8978 31.5209 11.885C31.8513 11.8723 32.1742 11.9846 32.4253 12.1996L40.3003 20.0746C40.4547 20.2262 40.5704 20.4126 40.6377 20.6181C40.7051 20.8237 40.7222 21.0424 40.6875 21.2559C40.6282 21.503 40.5035 21.7297 40.3266 21.9121L32.4516 29.7871C32.3339 29.9245 32.1891 30.0361 32.0263 30.1149C31.8634 30.1937 31.6861 30.2379 31.5053 30.2449C31.3246 30.2519 31.1443 30.2215 30.9759 30.1555C30.8075 30.0895 30.6545 29.9894 30.5266 29.8615C30.3987 29.7336 30.2986 29.5806 30.2326 29.4122C30.1666 29.2438 30.1362 29.0635 30.1431 28.8828C30.1501 28.702 30.1944 28.5246 30.2732 28.3618C30.352 28.199 30.4635 28.0542 30.6009 27.9365L36.2053 22.3124H2.625C2.27691 22.3124 1.94307 22.1742 1.69693 21.928C1.45079 21.6819 1.3125 21.348 1.3125 20.9999C1.3125 20.6518 1.45079 20.318 1.69693 20.0719C1.94307 19.8257 2.27691 19.6874 2.625 19.6874Z" fill="black"/>
</svg>