<svg xmlns="http://www.w3.org/2000/svg" width="18" height="18" viewBox="0 0 18 18" fill="none">
  <path d="M1.907 1.77172H5.8845L7.16634 4.97675L5.10672 6.34983C4.98543 6.43075 4.88599 6.54036 4.81722 6.66893C4.74846 6.7975 4.71249 6.94106 4.71251 7.08686C4.71517 7.17013 4.71251 7.08775 4.71251 7.08775V7.10635C4.71297 7.14597 4.71474 7.18556 4.71783 7.22506C4.72314 7.2977 4.732 7.39603 4.74883 7.51739C4.78338 7.75657 4.84982 8.08611 4.97915 8.47412C5.2396 9.25367 5.74985 10.2627 6.74378 11.2566C7.73772 12.2505 8.74671 12.7608 9.52538 13.0212C9.91427 13.1506 10.2429 13.2161 10.4839 13.2515C10.6199 13.2705 10.7568 13.2824 10.894 13.287L10.9055 13.2879H10.9126C10.9126 13.2879 11.0118 13.2826 10.9135 13.2879C11.078 13.2878 11.2392 13.2419 11.3791 13.1554C11.5189 13.0689 11.632 12.9451 11.7055 12.798L12.299 11.6109L16.2287 12.2665V16.0934C14.3586 16.3636 9.30746 16.6302 5.33881 12.6616C1.37017 8.69292 1.63593 3.64088 1.907 1.77172ZM6.54889 7.51739L8.14964 6.45082C8.48781 6.22525 8.73813 5.89026 8.85862 5.50203C8.9791 5.1138 8.96242 4.69595 8.81138 4.31856L7.52954 1.11352C7.398 0.784786 7.17098 0.503003 6.87776 0.304524C6.58454 0.106045 6.23858 -2.37352e-05 5.8845 3.9839e-09H1.86093C1.05569 3.9839e-09 0.298281 0.558976 0.166288 1.43243C-0.134903 3.41853 -0.543284 9.28468 4.08621 13.9142C8.7157 18.5437 14.5819 18.1344 16.5679 17.8341C17.4414 17.7012 18.0004 16.9447 18.0004 16.1394V12.2665C18.0004 11.8471 17.8517 11.4413 17.5806 11.1212C17.3096 10.8012 16.9338 10.5877 16.5201 10.5187L12.5904 9.86403C12.2167 9.80164 11.8328 9.86072 11.4951 10.0326C11.1574 10.2045 10.8837 10.4801 10.7142 10.819L10.4077 11.4329C10.2993 11.4062 10.192 11.3752 10.0861 11.3399C9.53689 11.1574 8.77417 10.7818 7.99639 10.004C7.2186 9.22621 6.843 8.46349 6.66051 7.91337C6.61695 7.78333 6.57999 7.65117 6.54978 7.51739H6.54889Z" fill="black"/>
</svg>