<svg xmlns="http://www.w3.org/2000/svg" width="27" height="28" viewBox="0 0 27 28" fill="none">
  <g clip-path="url(#clip0_1_1208)">
    <path d="M24.591 4.08573C23.0351 2.47209 20.9663 1.5835 18.7658 1.5835C16.8196 1.5835 14.9765 2.27866 13.5 3.55554C12.0236 2.27866 10.1803 1.5835 8.23425 1.5835C6.03375 1.5835 3.96498 2.47215 2.40897 4.08573C-0.802991 7.41671 -0.802991 12.8367 2.40897 16.1678L11.4423 25.5356C11.9903 26.1038 12.721 26.4167 13.5 26.4167C14.279 26.4167 15.0098 26.1038 15.5578 25.5356L24.591 16.1678C27.803 12.8367 27.803 7.41665 24.591 4.08573ZM23.472 15.0074L14.4388 24.3751C14.1897 24.6334 13.8563 24.7756 13.5 24.7756C13.1437 24.7756 12.8103 24.6334 12.5612 24.3752L3.528 15.0074C0.933045 12.3161 0.933045 7.93726 3.52795 5.24614C4.78507 3.94246 6.45649 3.22453 8.23425 3.22453C10.012 3.22453 11.6834 3.94246 12.9405 5.24609C13.2494 5.56654 13.7504 5.56654 14.0595 5.24609C15.3166 3.9424 16.988 3.22448 18.7658 3.22448C20.5436 3.22448 22.215 3.9424 23.4721 5.24603C26.067 7.93726 26.067 12.3161 23.472 15.0074Z" fill="black"/>
  </g>
  <defs>
    <clipPath id="clip0_1_1208">
      <rect width="27" height="28" fill="white"/>
    </clipPath>
  </defs>
</svg>