<svg xmlns="http://www.w3.org/2000/svg" width="18" height="18" viewBox="0 0 18 18" fill="none">
<path d="M13.5071 3C13.9029 3.0005 14.2823 3.15794 14.5622 3.4378C14.8421 3.71766 14.9995 4.09709 15 4.49288V13.5071C14.9995 13.9029 14.8421 14.2823 14.5622 14.5622C14.2823 14.8421 13.9029 14.9995 13.5071 15H4.49288C4.09709 14.9995 3.71766 14.8421 3.4378 14.5622C3.15794 14.2823 3.0005 13.9029 3 13.5071V4.49288C3.0005 4.09709 3.15794 3.71766 3.4378 3.4378C3.71766 3.15794 4.09709 3.0005 4.49288 3H13.5071ZM13.5071 1.5H4.49288C4.09983 1.49995 3.71063 1.57733 3.34749 1.72772C2.98436 1.87811 2.65441 2.09856 2.37648 2.37648C2.09856 2.65441 1.87811 2.98436 1.72772 3.34749C1.57733 3.71063 1.49995 4.09983 1.5 4.49288V13.5071C1.49995 13.9002 1.57733 14.2894 1.72772 14.6525C1.87811 15.0156 2.09856 15.3456 2.37648 15.6235C2.65441 15.9014 2.98436 16.1219 3.34749 16.2723C3.71063 16.4227 4.09983 16.5 4.49288 16.5H13.5071C13.9002 16.5 14.2894 16.4227 14.6525 16.2723C15.0156 16.1219 15.3456 15.9014 15.6235 15.6235C15.9014 15.3456 16.1219 15.0156 16.2723 14.6525C16.4227 14.2894 16.5 13.9002 16.5 13.5071V4.49288C16.5 4.09983 16.4227 3.71063 16.2723 3.34749C16.1219 2.98436 15.9014 2.65441 15.6235 2.37648C15.3456 2.09856 15.0156 1.87811 14.6525 1.72772C14.2894 1.57733 13.9002 1.49995 13.5071 1.5Z" fill="black"/>
<path d="M9 12.75C6.93225 12.75 5.25 11.0677 5.25 9C5.25 6.93225 6.93225 5.25 9 5.25C11.0677 5.25 12.75 6.93225 12.75 9C12.75 11.0677 11.0677 12.75 9 12.75ZM9 6.75C7.75912 6.75 6.75 7.75912 6.75 9C6.75 10.2409 7.75912 11.25 9 11.25C10.2409 11.25 11.25 10.2409 11.25 9C11.25 7.75912 10.2409 6.75 9 6.75Z" fill="black"/>
<path d="M13.125 5.625C13.5392 5.625 13.875 5.28921 13.875 4.875C13.875 4.46079 13.5392 4.125 13.125 4.125C12.7108 4.125 12.375 4.46079 12.375 4.875C12.375 5.28921 12.7108 5.625 13.125 5.625Z" fill="black"/>
</svg>