<svg xmlns="http://www.w3.org/2000/svg" width="49" height="49" viewBox="0 0 49 49" fill="none">
  <path fill-rule="evenodd" clip-rule="evenodd" d="M7.3501 12.25C7.3501 11.6003 7.60823 10.9771 8.06768 10.5176C8.52715 10.0582 9.15031 9.80005 9.8001 9.80005H39.2001C39.8498 9.80005 40.4731 10.0582 40.9325 10.5176C41.3919 10.9771 41.6501 11.6003 41.6501 12.25C41.6501 12.8998 41.3919 13.523 40.9325 13.9825C40.4731 14.4419 39.8498 14.7 39.2001 14.7H9.8001C9.15031 14.7 8.52715 14.4419 8.06768 13.9825C7.60823 13.523 7.3501 12.8998 7.3501 12.25ZM7.3501 24.5C7.3501 23.8503 7.60823 23.2271 8.06768 22.7676C8.52715 22.3082 9.15031 22.05 9.8001 22.05H24.5001C25.1498 22.05 25.7731 22.3082 26.2325 22.7676C26.6919 23.2271 26.9501 23.8503 26.9501 24.5C26.9501 25.1498 26.6919 25.7731 26.2325 26.2324C25.7731 26.6918 25.1498 26.95 24.5001 26.95H9.8001C9.15031 26.95 8.52715 26.6918 8.06768 26.2324C7.60823 25.7731 7.3501 25.1498 7.3501 24.5ZM7.3501 36.75C7.3501 36.1003 7.60823 35.477 8.06768 35.0177C8.52715 34.5583 9.15031 34.3 9.8001 34.3H39.2001C39.8498 34.3 40.4731 34.5583 40.9325 35.0177C41.3919 35.477 41.6501 36.1003 41.6501 36.75C41.6501 37.3998 41.3919 38.0231 40.9325 38.4824C40.4731 38.9418 39.8498 39.2001 39.2001 39.2001H9.8001C9.15031 39.2001 8.52715 38.9418 8.06768 38.4824C7.60823 38.0231 7.3501 37.3998 7.3501 36.75Z" fill="black"/>
</svg>