<svg xmlns="http://www.w3.org/2000/svg" width="32" height="32" viewBox="0 0 32 32" fill="none">
  <circle cx="16" cy="16" r="16" fill="white"/>
  <path d="M15.6994 5.00051C14.9853 5.00441 14.2691 5.04543 13.5469 5.12941C12.1657 5.29152 10.7969 5.56104 9.48328 6.1372C7.39421 7.0532 5.91282 8.60785 5.48314 10.8676C5.30103 11.8207 5.15371 12.7874 5.06982 13.7601C4.90818 15.6487 5.00844 17.5432 5.56908 19.4045C6.01104 20.8713 6.82539 22.1896 8.25153 23.045C8.85513 23.4064 9.65107 23.5821 10.0664 23.7657C10.1831 23.8185 10.2117 23.8497 10.2178 23.8575C10.224 23.8634 10.2403 23.877 10.2383 23.9942C10.224 25.1895 10.2383 27.502 10.2383 27.502L10.2403 28H11.1754L11.3268 27.8594C11.3268 27.8594 13.7024 25.6778 14.5617 24.7794C14.7172 24.6192 14.797 24.5294 14.8134 24.5196C14.8277 24.5098 14.8032 24.504 14.9628 24.5001C16.0902 24.4786 17.2155 24.4376 18.3409 24.379C19.8243 24.3009 21.3364 24.1661 22.7912 23.586C24.0577 23.0802 25.1156 22.254 25.756 21.0158C26.4108 19.7463 26.7606 18.4006 26.8916 17.0081C27.1085 14.6897 27.0328 12.3675 26.3617 10.0785C25.9668 8.73675 25.1729 7.60201 23.9554 6.80125C22.4986 5.84424 20.8556 5.48487 19.2473 5.25636C18.3082 5.12355 17.3629 5.03566 16.4135 5.00832C16.1761 5.00246 15.9388 4.99856 15.6994 5.00051ZM16.3848 6.0083C17.2872 6.03174 18.1895 6.11572 19.0939 6.24462C20.6448 6.46532 22.1078 6.80125 23.3621 7.62545C24.379 8.2934 25.0133 9.19573 25.3529 10.3461C25.979 12.4867 26.0588 14.68 25.8481 16.9202C25.7274 18.2112 25.4061 19.4279 24.8148 20.5744C24.293 21.5861 23.4787 22.2286 22.3861 22.6642C21.1175 23.17 19.7384 23.3048 18.2857 23.381C17.1726 23.4396 16.0574 23.4786 14.9423 23.5001C14.662 23.506 14.3878 23.5763 14.1934 23.713C13.9991 23.8497 13.9111 23.9767 13.7903 24.1016C13.1765 24.7423 11.9529 25.8692 11.2859 26.4864C11.2818 25.7403 11.2757 24.838 11.2859 24.0059C11.29 23.7501 11.2286 23.4884 11.0752 23.2814C10.9217 23.0743 10.711 22.9493 10.5084 22.8595C9.91706 22.5978 9.14363 22.3986 8.80807 22.1974C7.63565 21.4943 6.97066 20.4396 6.57576 19.1271C6.0581 17.4104 5.95988 15.6429 6.11334 13.8441C6.19519 12.9105 6.33637 11.975 6.51438 11.0472C6.88677 9.09221 8.05715 7.86177 9.91911 7.04539C11.0956 6.52977 12.3519 6.27587 13.6758 6.12158C14.5781 6.01611 15.4804 5.98291 16.3848 6.0083ZM16.6058 8.50043C16.1741 8.50043 15.7546 8.5473 15.3474 8.63324C15.0671 8.69574 14.8891 8.96331 14.9525 9.23284C15.016 9.50236 15.2983 9.67033 15.5807 9.60978C15.9101 9.53752 16.2539 9.50041 16.6058 9.50041C19.1634 9.50041 21.2259 11.4691 21.2259 13.9085C21.2259 14.2464 21.187 14.5745 21.1113 14.8909C21.0479 15.1585 21.2239 15.428 21.5062 15.4886C21.7886 15.5491 22.0689 15.3792 22.1323 15.1097C22.2244 14.7229 22.2735 14.3226 22.2735 13.9085C22.2735 10.9281 19.7302 8.50043 16.6058 8.50043ZM11.38 9.50236C11.2941 9.49846 11.2061 9.50431 11.114 9.52385C10.1626 9.72501 9.21729 10.3832 9.19069 11.559C9.21729 11.723 9.21524 11.8988 9.27867 12.0472C9.58968 12.7738 9.85977 13.5238 10.2485 14.2112C12.1412 17.551 15.0037 19.8732 18.6519 21.3478C19.0877 21.5236 19.5379 21.5607 19.9778 21.3849C20.5834 21.1447 21.097 20.7736 21.4387 20.2404C21.9073 19.508 21.9134 19.0002 21.142 18.4592C20.6366 18.1037 20.1394 17.7385 19.6279 17.3909C18.8483 16.8635 18.0053 16.7717 17.4242 17.6975C17.3935 17.7444 17.3485 17.7834 17.3097 17.8225C17.0109 18.1252 16.6447 18.1994 16.2559 18.0471C14.7807 17.467 13.641 16.5315 12.9535 15.139C12.5484 14.3206 12.6588 13.9105 13.4159 13.3656C13.4916 13.3128 13.5632 13.2562 13.6328 13.1956C13.9643 12.9066 14.0522 12.5628 13.8558 12.1742C13.4118 11.2875 12.8205 10.4965 12.0716 9.81485C11.8691 9.63127 11.6378 9.51603 11.38 9.50236ZM16.5976 10.0004C16.3664 10.0004 16.1372 10.018 15.9122 10.0551C15.7219 10.0785 15.5602 10.1996 15.4907 10.3695C15.4211 10.5414 15.4559 10.7348 15.5786 10.8754C15.7035 11.014 15.8999 11.0785 16.0881 11.0394C16.2518 11.014 16.4237 11.0004 16.5976 11.0004C18.3 11.0004 19.6668 12.305 19.6668 13.93C19.6668 14.096 19.6525 14.2601 19.6259 14.4163C19.5849 14.596 19.6525 14.7835 19.7977 14.9026C19.945 15.0198 20.1476 15.053 20.3277 14.9866C20.5057 14.9202 20.6325 14.7659 20.6571 14.5843C20.696 14.3694 20.7144 14.1507 20.7144 13.93C20.7144 11.766 18.8647 10.0004 16.5976 10.0004ZM16.524 11.5004C16.3357 11.4984 16.1597 11.5922 16.0636 11.7484C15.9695 11.9047 15.9695 12.0961 16.0636 12.2523C16.1597 12.4085 16.3357 12.5023 16.524 12.5003C17.3976 12.5003 18.0954 13.1663 18.0954 14.0003C18.0933 14.18 18.1915 14.348 18.3552 14.4398C18.5189 14.5296 18.7194 14.5296 18.8831 14.4398C19.0468 14.348 19.145 14.18 19.143 14.0003C19.143 12.6253 17.9644 11.5004 16.524 11.5004Z" fill="black"/>
</svg>